<svg xmlns="http://www.w3.org/2000/svg" width="276" height="350" viewBox="0 0 276 350"><rect width="100%" height="100%" fill="#DDDDDD"/><path fill="#999999" d="m61.415 166.39.35 1.66q.63-.64 1.34-1.18t1.49-.92q.79-.38 1.7-.6.9-.21 1.96-.21 1.73 0 3.06.58 1.33.59 2.22 1.64.89 1.06 1.36 2.52.46 1.47.46 3.23v13.39h-5.07v-13.39q0-1.92-.88-2.98t-2.68-1.06q-1.32 0-2.46.6-1.15.59-2.18 1.62v15.21h-5.06v-21.03h3.1q.98 0 1.29.92m28.04-1.25q2.34 0 4.25.76 1.92.76 3.28 2.15 1.37 1.39 2.11 3.4.73 2.01.73 4.49 0 2.5-.73 4.51-.74 2.01-2.11 3.43-1.36 1.41-3.28 2.17-1.91.76-4.25.76-2.36 0-4.28-.76-1.93-.76-3.29-2.17-1.37-1.42-2.12-3.43-.74-2.01-.74-4.51 0-2.48.74-4.49.75-2.01 2.12-3.4 1.36-1.39 3.29-2.15 1.92-.76 4.28-.76m0 17.77q2.62 0 3.89-1.76 1.26-1.76 1.26-5.17 0-3.4-1.26-5.18-1.27-1.79-3.89-1.79-2.66 0-3.95 1.8-1.28 1.79-1.28 5.17 0 3.39 1.28 5.16 1.29 1.77 3.95 1.77m24.38-17.44h5.08v21.03h-5.08zm5.78-6.13q0 .65-.27 1.23-.27.57-.71 1t-1.03.69q-.6.26-1.27.26-.66 0-1.24-.26-.59-.26-1.02-.69t-.69-1q-.25-.58-.25-1.23 0-.68.25-1.27.26-.6.69-1.03t1.02-.69q.58-.25 1.24-.25.67 0 1.27.25.59.26 1.03.69t.71 1.03q.27.59.27 1.27m9.53 27.16h-5.06v-21.03h3.09q.98 0 1.29.92l.33 1.56q.55-.62 1.16-1.13.6-.51 1.29-.88t1.48-.59q.79-.21 1.73-.21 1.99 0 3.27 1.08 1.28 1.07 1.91 2.85.5-1.04 1.23-1.79.74-.75 1.62-1.22.89-.47 1.88-.7.99-.22 2-.22 1.74 0 3.09.53 1.36.53 2.28 1.56.92 1.02 1.4 2.5.49 1.48.49 3.38v13.39h-5.07v-13.39q0-2.01-.88-3.02-.88-1.02-2.58-1.02-.78 0-1.45.27-.66.27-1.17.77-.5.5-.79 1.26-.28.76-.28 1.74v13.39h-5.09v-13.39q0-2.11-.85-3.07-.85-.97-2.49-.97-1.1 0-2.06.55-.95.54-1.77 1.48zm40.38-5.43v-3.55q-2.19.1-3.69.38-1.49.28-2.39.71-.91.43-1.3 1-.39.58-.39 1.25 0 1.33.79 1.91.79.57 2.06.57 1.56 0 2.7-.56t2.22-1.71m-10.7-11.05-.9-1.62q3.63-3.32 8.73-3.32 1.85 0 3.3.6 1.46.61 2.46 1.68 1.01 1.08 1.53 2.58.52 1.49.52 3.28v13.28h-2.29q-.72 0-1.11-.22-.39-.21-.61-.87l-.45-1.51q-.8.71-1.56 1.26-.76.54-1.58.91t-1.75.56q-.94.2-2.06.2-1.34 0-2.46-.36-1.13-.36-1.95-1.08-.82-.71-1.27-1.78t-.45-2.48q0-.8.26-1.59.27-.79.87-1.51.61-.71 1.57-1.35.97-.64 2.37-1.11t3.27-.77q1.87-.29 4.26-.35v-1.23q0-2.12-.9-3.13-.9-1.02-2.6-1.02-1.23 0-2.04.29t-1.43.65q-.61.36-1.11.64-.51.29-1.12.29-.53 0-.9-.28-.37-.27-.6-.64m28.09 5.45q.94 0 1.64-.26.69-.25 1.16-.7.46-.45.69-1.09.24-.63.24-1.39 0-1.56-.93-2.47-.94-.92-2.8-.92-1.87 0-2.8.92-.93.91-.93 2.47 0 .73.23 1.37.24.64.7 1.1t1.17.71q.71.26 1.63.26m5.72 11.97q0-.61-.37-1t-1.01-.61q-.63-.21-1.48-.31-.85-.11-1.81-.16-.95-.05-1.96-.09-1.02-.04-1.98-.16-.84.47-1.37 1.1-.52.64-.52 1.48 0 .55.28 1.03.27.49.88.83.6.35 1.57.55.96.19 2.36.19 1.41 0 2.43-.21 1.03-.22 1.7-.6.66-.38.97-.9t.31-1.14m-1.01-21.26h6.05v1.89q0 .9-1.09 1.11l-1.88.35q.43 1.08.43 2.37 0 1.56-.63 2.82-.62 1.26-1.73 2.15-1.11.88-2.61 1.36-1.51.48-3.25.48-.62 0-1.19-.06-.58-.06-1.13-.17-.98.6-.98 1.34 0 .63.58.93.59.3 1.55.42t2.19.15 2.52.14q1.3.1 2.53.36 1.23.25 2.19.81.96.55 1.55 1.5.58.96.58 2.45 0 1.4-.69 2.71-.68 1.31-1.98 2.34-1.31 1.02-3.2 1.65-1.9.62-4.32.62-2.38 0-4.14-.46t-2.93-1.23-1.74-1.77q-.58-1.01-.58-2.1 0-1.47.9-2.47.89-.99 2.45-1.58-.85-.43-1.34-1.15t-.49-1.89q0-.47.18-.97.17-.5.51-1 .34-.49.85-.93t1.21-.79q-1.6-.86-2.51-2.29-.92-1.44-.92-3.37 0-1.55.63-2.81.62-1.27 1.74-2.16t2.65-1.36q1.52-.47 3.33-.47 1.35 0 2.54.27 1.19.28 2.17.81m13.25 7.38h9.55q0-.98-.28-1.85-.27-.87-.83-1.53-.55-.65-1.4-1.03t-1.98-.38q-2.19 0-3.46 1.25-1.26 1.25-1.6 3.54m12.91 3.06h-13.02q.13 1.62.58 2.8t1.19 1.94q.73.77 1.75 1.15 1.01.38 2.24.38t2.13-.29q.89-.28 1.55-.63.67-.35 1.17-.64.5-.28.98-.28.63 0 .94.47l1.45 1.84q-.84.99-1.88 1.65-1.05.67-2.19 1.07-1.13.4-2.31.56-1.18.17-2.29.17-2.19 0-4.08-.73-1.88-.73-3.28-2.15-1.39-1.43-2.19-3.53t-.8-4.87q0-2.15.7-4.05.69-1.89 2-3.3 1.3-1.4 3.17-2.22 1.88-.82 4.24-.82 1.99 0 3.67.63 1.68.64 2.89 1.86t1.89 2.99q.69 1.78.69 4.05 0 1.15-.25 1.55-.24.4-.94.4"/></svg>